<mxfile host="app.diagrams.net" agent="Mozilla/5.0 (X11; Linux x86_64) AppleWebKit/537.36 (KHTML, like Gecko) Chrome/138.0.0.0 Safari/537.36" version="28.2.2">
  <diagram name="第 1 页" id="wNidYjlRUk_YImZ4RDnf">
    <mxGraphModel dx="1403" dy="784" grid="1" gridSize="10" guides="1" tooltips="1" connect="1" arrows="1" fold="1" page="1" pageScale="1" pageWidth="827" pageHeight="1169" math="0" shadow="0">
      <root>
        <mxCell id="0" />
        <mxCell id="1" parent="0" />
        <mxCell id="UUYAaIaJkXPnobtH8tyP-1" value="&lt;blockquote style=&quot;margin: 0 0 0 40px; border: none; padding: 0px;&quot;&gt;&lt;blockquote style=&quot;margin: 0 0 0 40px; border: none; padding: 0px;&quot;&gt;&lt;blockquote style=&quot;margin: 0 0 0 40px; border: none; padding: 0px;&quot;&gt;&lt;blockquote style=&quot;margin: 0 0 0 40px; border: none; padding: 0px;&quot;&gt;&lt;blockquote style=&quot;margin: 0 0 0 40px; border: none; padding: 0px;&quot;&gt;&lt;blockquote style=&quot;margin: 0 0 0 40px; border: none; padding: 0px;&quot;&gt;&lt;blockquote style=&quot;margin: 0 0 0 40px; border: none; padding: 0px;&quot;&gt;&lt;blockquote style=&quot;margin: 0 0 0 40px; border: none; padding: 0px;&quot;&gt;&lt;blockquote style=&quot;margin: 0 0 0 40px; border: none; padding: 0px;&quot;&gt;&lt;blockquote style=&quot;margin: 0 0 0 40px; border: none; padding: 0px;&quot;&gt;&lt;blockquote style=&quot;margin: 0 0 0 40px; border: none; padding: 0px;&quot;&gt;&lt;blockquote style=&quot;margin: 0 0 0 40px; border: none; padding: 0px;&quot;&gt;&lt;blockquote style=&quot;margin: 0 0 0 40px; border: none; padding: 0px;&quot;&gt;&lt;blockquote style=&quot;margin: 0 0 0 40px; border: none; padding: 0px;&quot;&gt;&lt;blockquote style=&quot;margin: 0 0 0 40px; border: none; padding: 0px;&quot;&gt;&lt;div style=&quot;text-align: justify;&quot;&gt;&lt;span style=&quot;font-size: 24px; background-color: transparent; color: light-dark(rgb(0, 0, 0), rgb(255, 255, 255));&quot;&gt;Project&lt;/span&gt;&lt;/div&gt;&lt;/blockquote&gt;&lt;/blockquote&gt;&lt;/blockquote&gt;&lt;/blockquote&gt;&lt;/blockquote&gt;&lt;/blockquote&gt;&lt;/blockquote&gt;&lt;/blockquote&gt;&lt;/blockquote&gt;&lt;/blockquote&gt;&lt;/blockquote&gt;&lt;/blockquote&gt;&lt;/blockquote&gt;&lt;/blockquote&gt;&lt;/blockquote&gt;" style="rounded=1;whiteSpace=wrap;html=1;align=center;" vertex="1" parent="1">
          <mxGeometry x="54" y="20" width="720" height="90" as="geometry" />
        </mxCell>
        <mxCell id="UUYAaIaJkXPnobtH8tyP-2" value="OMPI" style="rounded=1;whiteSpace=wrap;html=1;fontSize=20;" vertex="1" parent="1">
          <mxGeometry x="80" y="35" width="180" height="60" as="geometry" />
        </mxCell>
        <mxCell id="UUYAaIaJkXPnobtH8tyP-4" value="OPAL" style="rounded=1;whiteSpace=wrap;html=1;fontSize=20;" vertex="1" parent="1">
          <mxGeometry x="270" y="35" width="180" height="60" as="geometry" />
        </mxCell>
        <mxCell id="UUYAaIaJkXPnobtH8tyP-5" value="OSHMEM" style="rounded=1;whiteSpace=wrap;html=1;fontSize=20;" vertex="1" parent="1">
          <mxGeometry x="460" y="35" width="180" height="60" as="geometry" />
        </mxCell>
        <mxCell id="UUYAaIaJkXPnobtH8tyP-7" value="&lt;blockquote style=&quot;margin: 0 0 0 40px; border: none; padding: 0px;&quot;&gt;&lt;blockquote style=&quot;margin: 0 0 0 40px; border: none; padding: 0px;&quot;&gt;&lt;blockquote style=&quot;margin: 0 0 0 40px; border: none; padding: 0px;&quot;&gt;&lt;blockquote style=&quot;margin: 0 0 0 40px; border: none; padding: 0px;&quot;&gt;&lt;blockquote style=&quot;margin: 0 0 0 40px; border: none; padding: 0px;&quot;&gt;&lt;blockquote style=&quot;margin: 0 0 0 40px; border: none; padding: 0px;&quot;&gt;&lt;blockquote style=&quot;margin: 0 0 0 40px; border: none; padding: 0px;&quot;&gt;&lt;blockquote style=&quot;margin: 0 0 0 40px; border: none; padding: 0px;&quot;&gt;&lt;blockquote style=&quot;margin: 0 0 0 40px; border: none; padding: 0px;&quot;&gt;&lt;blockquote style=&quot;margin: 0 0 0 40px; border: none; padding: 0px;&quot;&gt;&lt;blockquote style=&quot;margin: 0 0 0 40px; border: none; padding: 0px;&quot;&gt;&lt;blockquote style=&quot;margin: 0 0 0 40px; border: none; padding: 0px;&quot;&gt;&lt;blockquote style=&quot;margin: 0 0 0 40px; border: none; padding: 0px;&quot;&gt;&lt;blockquote style=&quot;margin: 0 0 0 40px; border: none; padding: 0px;&quot;&gt;&lt;div style=&quot;text-align: justify;&quot;&gt;&lt;span style=&quot;font-size: 24px; background-color: transparent; color: light-dark(rgb(0, 0, 0), rgb(255, 255, 255));&quot;&gt;Framework&lt;/span&gt;&lt;/div&gt;&lt;/blockquote&gt;&lt;/blockquote&gt;&lt;/blockquote&gt;&lt;/blockquote&gt;&lt;/blockquote&gt;&lt;/blockquote&gt;&lt;/blockquote&gt;&lt;/blockquote&gt;&lt;/blockquote&gt;&lt;/blockquote&gt;&lt;/blockquote&gt;&lt;/blockquote&gt;&lt;/blockquote&gt;&lt;/blockquote&gt;" style="rounded=1;whiteSpace=wrap;html=1;align=center;" vertex="1" parent="1">
          <mxGeometry x="54" y="130" width="720" height="90" as="geometry" />
        </mxCell>
        <mxCell id="UUYAaIaJkXPnobtH8tyP-8" value="BTL" style="rounded=1;whiteSpace=wrap;html=1;fontSize=16;" vertex="1" parent="1">
          <mxGeometry x="80" y="145" width="100" height="60" as="geometry" />
        </mxCell>
        <mxCell id="UUYAaIaJkXPnobtH8tyP-9" value="COLL" style="rounded=1;whiteSpace=wrap;html=1;fontSize=16;" vertex="1" parent="1">
          <mxGeometry x="190" y="145" width="100" height="60" as="geometry" />
        </mxCell>
        <mxCell id="UUYAaIaJkXPnobtH8tyP-10" value="PML" style="rounded=1;whiteSpace=wrap;html=1;fontSize=16;" vertex="1" parent="1">
          <mxGeometry x="300" y="145" width="100" height="60" as="geometry" />
        </mxCell>
        <mxCell id="UUYAaIaJkXPnobtH8tyP-11" value="IO" style="rounded=1;whiteSpace=wrap;html=1;fontSize=16;" vertex="1" parent="1">
          <mxGeometry x="410" y="145" width="100" height="60" as="geometry" />
        </mxCell>
        <mxCell id="UUYAaIaJkXPnobtH8tyP-12" value="..." style="rounded=1;whiteSpace=wrap;html=1;fontSize=16;" vertex="1" parent="1">
          <mxGeometry x="520" y="145" width="100" height="60" as="geometry" />
        </mxCell>
        <mxCell id="UUYAaIaJkXPnobtH8tyP-13" value="&lt;blockquote style=&quot;margin: 0 0 0 40px; border: none; padding: 0px;&quot;&gt;&lt;blockquote style=&quot;margin: 0 0 0 40px; border: none; padding: 0px;&quot;&gt;&lt;blockquote style=&quot;margin: 0 0 0 40px; border: none; padding: 0px;&quot;&gt;&lt;blockquote style=&quot;margin: 0 0 0 40px; border: none; padding: 0px;&quot;&gt;&lt;blockquote style=&quot;margin: 0 0 0 40px; border: none; padding: 0px;&quot;&gt;&lt;blockquote style=&quot;margin: 0 0 0 40px; border: none; padding: 0px;&quot;&gt;&lt;blockquote style=&quot;margin: 0 0 0 40px; border: none; padding: 0px;&quot;&gt;&lt;blockquote style=&quot;margin: 0 0 0 40px; border: none; padding: 0px;&quot;&gt;&lt;blockquote style=&quot;margin: 0 0 0 40px; border: none; padding: 0px;&quot;&gt;&lt;blockquote style=&quot;margin: 0 0 0 40px; border: none; padding: 0px;&quot;&gt;&lt;blockquote style=&quot;margin: 0 0 0 40px; border: none; padding: 0px;&quot;&gt;&lt;blockquote style=&quot;margin: 0 0 0 40px; border: none; padding: 0px;&quot;&gt;&lt;blockquote style=&quot;margin: 0 0 0 40px; border: none; padding: 0px;&quot;&gt;&lt;blockquote style=&quot;margin: 0 0 0 40px; border: none; padding: 0px;&quot;&gt;&lt;div style=&quot;text-align: justify;&quot;&gt;&lt;span style=&quot;font-size: 24px; background-color: transparent; color: light-dark(rgb(0, 0, 0), rgb(255, 255, 255));&quot;&gt;Component&lt;/span&gt;&lt;/div&gt;&lt;/blockquote&gt;&lt;/blockquote&gt;&lt;/blockquote&gt;&lt;/blockquote&gt;&lt;/blockquote&gt;&lt;/blockquote&gt;&lt;/blockquote&gt;&lt;/blockquote&gt;&lt;/blockquote&gt;&lt;/blockquote&gt;&lt;/blockquote&gt;&lt;/blockquote&gt;&lt;/blockquote&gt;&lt;/blockquote&gt;" style="rounded=1;whiteSpace=wrap;html=1;align=center;" vertex="1" parent="1">
          <mxGeometry x="54" y="250" width="720" height="90" as="geometry" />
        </mxCell>
        <mxCell id="UUYAaIaJkXPnobtH8tyP-14" style="edgeStyle=orthogonalEdgeStyle;rounded=0;orthogonalLoop=1;jettySize=auto;html=1;exitX=0.5;exitY=1;exitDx=0;exitDy=0;entryX=0.106;entryY=0.012;entryDx=0;entryDy=0;entryPerimeter=0;" edge="1" parent="1" source="UUYAaIaJkXPnobtH8tyP-8" target="UUYAaIaJkXPnobtH8tyP-13">
          <mxGeometry relative="1" as="geometry" />
        </mxCell>
        <mxCell id="UUYAaIaJkXPnobtH8tyP-16" value="SELF" style="rounded=1;whiteSpace=wrap;html=1;fontSize=16;" vertex="1" parent="1">
          <mxGeometry x="80" y="265" width="100" height="60" as="geometry" />
        </mxCell>
        <mxCell id="UUYAaIaJkXPnobtH8tyP-17" value="SM" style="rounded=1;whiteSpace=wrap;html=1;fontSize=16;" vertex="1" parent="1">
          <mxGeometry x="190" y="265" width="100" height="60" as="geometry" />
        </mxCell>
        <mxCell id="UUYAaIaJkXPnobtH8tyP-18" value="PML" style="rounded=1;whiteSpace=wrap;html=1;fontSize=16;" vertex="1" parent="1">
          <mxGeometry x="300" y="265" width="100" height="60" as="geometry" />
        </mxCell>
        <mxCell id="UUYAaIaJkXPnobtH8tyP-19" value="IO" style="rounded=1;whiteSpace=wrap;html=1;fontSize=16;" vertex="1" parent="1">
          <mxGeometry x="410" y="265" width="100" height="60" as="geometry" />
        </mxCell>
        <mxCell id="UUYAaIaJkXPnobtH8tyP-20" value="..." style="rounded=1;whiteSpace=wrap;html=1;fontSize=16;" vertex="1" parent="1">
          <mxGeometry x="520" y="265" width="100" height="60" as="geometry" />
        </mxCell>
      </root>
    </mxGraphModel>
  </diagram>
</mxfile>
